<svg width="14" height="14" viewBox="0 0 14 14" fill="none" xmlns="http://www.w3.org/2000/svg">
<path fill-rule="evenodd" clip-rule="evenodd" d="M12.7511 1.86667H2.91044L2.06963 0.287165C1.97525 0.109875 1.79671 0 1.603 0H0.534334C0.239229 0 0 0.250721 0 0.56C0 0.869279 0.239229 1.12 0.534334 1.12H1.28924L2.11902 2.67878L4.0327 7.11639L4.03466 7.12092L4.20322 7.51178L2.28187 9.65966C2.14371 9.8141 2.10047 10.037 2.1701 10.2357C2.23973 10.4344 2.41032 10.575 2.61101 10.599L4.3623 10.8088C6.55283 11.0712 8.76476 11.0712 10.9553 10.8088L12.7066 10.599C12.9998 10.5639 13.2103 10.2864 13.1768 9.97908C13.1433 9.6718 12.8784 9.45117 12.5852 9.48629L10.834 9.69605C8.72405 9.94877 6.59354 9.94877 4.48364 9.69605L3.78864 9.61281L5.19883 8.03634C5.21247 8.02109 5.22514 8.00526 5.23684 7.98892L5.77318 8.06205C6.52476 8.16454 7.28448 8.18464 8.04003 8.12201C9.80224 7.97594 11.4355 7.09713 12.5757 5.68144L12.9875 5.17011C13.0014 5.15294 13.0142 5.13491 13.026 5.11612L13.7935 3.8902C14.3376 3.02126 13.7428 1.86667 12.7511 1.86667ZM5.27656 6.86489C5.15872 6.84882 5.0571 6.77036 5.00748 6.65731L5.00653 6.65512L3.42454 2.98667H12.7511C12.8928 2.98667 12.9778 3.15161 12.9001 3.27574L12.1502 4.47345L11.7591 4.959C10.803 6.1461 9.43344 6.88301 7.95577 7.0055C7.27426 7.06199 6.58899 7.04386 5.91107 6.95142L5.27656 6.86489Z" fill="white"/>
<path d="M3.74034 11.76C3.15013 11.76 2.67167 12.2614 2.67167 12.88C2.67167 13.4986 3.15013 14 3.74034 14C4.33055 14 4.80901 13.4986 4.80901 12.88C4.80901 12.2614 4.33055 11.76 3.74034 11.76Z" fill="white"/>
<path d="M10.5086 12.88C10.5086 12.2614 10.987 11.76 11.5772 11.76C12.1674 11.76 12.6459 12.2614 12.6459 12.88C12.6459 13.4986 12.1674 14 11.5772 14C10.987 14 10.5086 13.4986 10.5086 12.88Z" fill="white"/>
</svg>
