<svg width="18" height="18" viewBox="0 0 18 18" fill="none" xmlns="http://www.w3.org/2000/svg">
<path fill-rule="evenodd" clip-rule="evenodd" d="M4.90139 2.4375C4.46255 2.4375 4.05274 2.65682 3.80932 3.02196L1.1174 7.05983C0.952603 7.30703 0.932895 7.62358 1.06576 7.88931C2.53884 10.8355 4.58601 13.4574 7.08693 15.6011L8.39996 16.7265C8.74525 17.0225 9.25475 17.0225 9.60003 16.7265L10.9131 15.6011C13.414 13.4574 15.4612 10.8355 16.9342 7.88931C17.0671 7.62358 17.0474 7.30703 16.8826 7.05983L14.1907 3.02196C13.9473 2.65682 13.5374 2.4375 13.0986 2.4375H4.90139ZM4.74538 3.64599C4.78015 3.59383 4.83869 3.5625 4.90139 3.5625H6.65624L5.2199 7.00971C5.18682 7.08912 5.16185 7.17101 5.14502 7.25418C4.61714 7.21489 4.08972 7.16752 3.56293 7.11207L2.50864 7.00109L4.74538 3.64599ZM2.45899 8.12708C3.80404 10.5946 5.58016 12.8035 7.70491 14.6484L5.36081 8.3975C4.72156 8.35356 4.0829 8.29802 3.44516 8.23089L2.45899 8.12708ZM6.5886 8.46762L9 14.898L11.4114 8.46762C9.80463 8.54072 8.19537 8.54072 6.5886 8.46762ZM12.6392 8.3975L10.2951 14.6484C12.4198 12.8035 14.196 10.5946 15.541 8.12708L14.5548 8.23089C13.9171 8.29802 13.2784 8.35356 12.6392 8.3975ZM15.4914 7.00109L14.4371 7.11207C13.9103 7.16752 13.3829 7.21489 12.855 7.25418C12.8382 7.17101 12.8132 7.08912 12.7801 7.00971L11.3438 3.5625H13.0986C13.1613 3.5625 13.2198 3.59383 13.2546 3.64599L15.4914 7.00109ZM11.6938 7.32754C9.89913 7.42074 8.10086 7.42074 6.30623 7.32754L7.87499 3.5625H10.125L11.6938 7.32754Z" fill="#353535"/>
</svg>
