<svg width="18" height="18" viewBox="0 0 18 18" fill="none" xmlns="http://www.w3.org/2000/svg">
<path d="M9.00002 6.56253C7.65382 6.56253 6.56252 7.65384 6.56252 9.00003C6.56252 10.3462 7.65382 11.4375 9.00002 11.4375C10.3462 11.4375 11.4375 10.3462 11.4375 9.00003C11.4375 7.65384 10.3462 6.56253 9.00002 6.56253Z" fill="white"/>
<path fill-rule="evenodd" clip-rule="evenodd" d="M5.07717 2.31114C7.66326 2.0221 10.3368 2.0221 12.9229 2.31114C14.3467 2.47027 15.4951 3.5921 15.6622 5.02089C15.9714 7.66464 15.9714 10.3354 15.6622 12.9792C15.4951 14.408 14.3467 15.5298 12.9229 15.6889C10.3368 15.978 7.66326 15.978 5.07717 15.6889C3.65337 15.5298 2.50498 14.408 2.33787 12.9792C2.02865 10.3354 2.02865 7.66464 2.33787 5.02089C2.50498 3.5921 3.65337 2.47027 5.07717 2.31114ZM12.75 4.50003C12.3358 4.50003 12 4.83582 12 5.25003C12 5.66425 12.3358 6.00003 12.75 6.00003C13.1642 6.00003 13.5 5.66425 13.5 5.25003C13.5 4.83582 13.1642 4.50003 12.75 4.50003ZM5.43752 9.00003C5.43752 7.03252 7.0325 5.43753 9.00002 5.43753C10.9675 5.43753 12.5625 7.03252 12.5625 9.00003C12.5625 10.9675 10.9675 12.5625 9.00002 12.5625C7.0325 12.5625 5.43752 10.9675 5.43752 9.00003Z" fill="white"/>
</svg>
