<svg width="16" height="16" viewBox="0 0 16 16" fill="none" xmlns="http://www.w3.org/2000/svg">
<path d="M3.16667 1.25006C2.38426 1.25006 1.75 1.88432 1.75 2.66673C1.75 3.44913 2.38426 4.08339 3.16667 4.08339C3.94907 4.08339 4.58333 3.44913 4.58333 2.66673C4.58333 1.88432 3.94907 1.25006 3.16667 1.25006Z" fill="#6C7175"/>
<path d="M1.83333 5.25006C1.78731 5.25006 1.75 5.28737 1.75 5.33339V14.0001C1.75 14.0461 1.78731 14.0834 1.83333 14.0834H4.5C4.54602 14.0834 4.58333 14.0461 4.58333 14.0001V5.33339C4.58333 5.28737 4.54602 5.25006 4.5 5.25006H1.83333Z" fill="#6C7175"/>
<path d="M6.16667 5.25006C6.12064 5.25006 6.08333 5.28737 6.08333 5.33339V14.0001C6.08333 14.0461 6.12064 14.0834 6.16667 14.0834H8.83333C8.87936 14.0834 8.91667 14.0461 8.91667 14.0001V9.33339C8.91667 9.00187 9.04836 8.68393 9.28278 8.44951C9.5172 8.21509 9.83515 8.08339 10.1667 8.08339C10.4982 8.08339 10.8161 8.21509 11.0506 8.44951C11.285 8.68393 11.4167 9.00187 11.4167 9.33339V14.0001C11.4167 14.0461 11.454 14.0834 11.5 14.0834H14.1667C14.2127 14.0834 14.25 14.0461 14.25 14.0001V8.25356C14.25 6.63573 12.8429 5.37006 11.2332 5.51639C10.7368 5.56152 10.246 5.68493 9.78765 5.88136L8.91667 6.25463V5.33339C8.91667 5.28737 8.87936 5.25006 8.83333 5.25006H6.16667Z" fill="#6C7175"/>
</svg>
