<svg width="16" height="16" viewBox="0 0 16 16" fill="none" xmlns="http://www.w3.org/2000/svg">
<path d="M3.49983 8.33358C3.49983 8.05744 3.27597 7.83358 2.99983 7.83358C2.72369 7.83358 2.49983 8.05744 2.49983 8.33358L2.49983 12.3336C2.49983 12.9779 3.02216 13.5002 3.66649 13.5002L11.6665 13.5002C12.3108 13.5002 12.8332 12.9779 12.8332 12.3336L12.8332 8.33358C12.8332 8.05744 12.6093 7.83358 12.3332 7.83358C12.057 7.83358 11.8332 8.05743 11.8332 8.33358L11.8332 12.3336C11.8332 12.4256 11.7585 12.5002 11.6665 12.5002L3.66649 12.5002C3.57445 12.5002 3.49983 12.4256 3.49983 12.3336L3.49983 8.33358Z" fill="white"/>
<path fill-rule="evenodd" clip-rule="evenodd" d="M6.92301 2.50024C6.46278 2.50024 6.08968 2.87334 6.08968 3.33358L6.08968 6.40864C6.04073 6.41299 5.9918 6.41754 5.94288 6.4223L5.57229 6.45832C5.00688 6.51327 4.66828 7.11367 4.91378 7.62595C5.43591 8.71544 6.21946 9.76786 7.09196 10.6035C7.41508 10.913 7.92464 10.913 8.24775 10.6035L8.3168 10.5374C9.18931 9.70173 9.9038 8.71544 10.4259 7.62595C10.6714 7.11367 10.3328 6.51327 9.76743 6.45832L9.39684 6.4223C9.34791 6.41754 9.29898 6.41299 9.25002 6.40864L9.25002 3.33358C9.25002 2.87334 8.87693 2.50024 8.41669 2.50024L6.92301 2.50024ZM6.64604 7.36905C6.89734 7.34072 7.08968 7.12779 7.08968 6.87222L7.08968 3.50024L8.25003 3.50024L8.25003 6.87222C8.25003 7.13628 8.45536 7.35482 8.7189 7.37125C8.91282 7.38335 9.10658 7.3988 9.3001 7.41761L9.40766 7.42806C8.95937 8.29795 8.37256 9.08969 7.66986 9.77204C7.37646 9.48714 7.10326 9.18317 6.85192 8.8624C6.50128 8.41492 6.19317 7.93475 5.93205 7.42806L6.03961 7.41761C6.23313 7.3988 6.42689 7.38335 6.62081 7.37126C6.62928 7.37073 6.63769 7.36999 6.64604 7.36905Z" fill="white"/>
</svg>
