<svg width="19" height="19" viewBox="0 0 19 19" fill="none" xmlns="http://www.w3.org/2000/svg">
<path d="M18.2869 6.59147C18.1909 6.14738 17.9335 5.75471 17.5645 5.48946C17.1956 5.22422 16.7414 5.10524 16.2899 5.15557L17.1746 3.76759C17.2033 3.72332 17.2134 3.66947 17.2025 3.61781C17.1916 3.56617 17.1608 3.52094 17.1167 3.49199L12.8848 0.767959C12.7014 0.648829 12.4963 0.567122 12.2812 0.527536C12.0661 0.48795 11.8453 0.491265 11.6315 0.537291C11.4177 0.583317 11.2151 0.671146 11.0354 0.79573C10.8557 0.920313 10.7023 1.07919 10.5842 1.26324L7.86613 5.49307C7.8376 5.53759 7.82789 5.59159 7.83912 5.64326C7.85035 5.69492 7.88161 5.74002 7.92604 5.76867L9.70945 6.919C9.74292 6.9409 9.78219 6.95225 9.82219 6.95157C9.86218 6.95089 9.90105 6.93822 9.93376 6.91519C9.96647 6.89217 9.99151 6.85985 10.0056 6.82243C10.0198 6.78501 10.0223 6.7442 10.013 6.70531C9.96887 6.51704 9.96382 6.32171 9.99817 6.13141C10.0325 5.94111 10.1055 5.75988 10.2127 5.59892C10.4254 5.29319 10.7484 5.08191 11.1138 5.00956C11.4791 4.93722 11.8583 5.00946 12.1714 5.21107C12.4846 5.41268 12.7073 5.72793 12.7927 6.09045C12.8781 6.45297 12.8195 6.83448 12.6292 7.15465C12.5253 7.31737 12.3894 7.45724 12.2298 7.56573C12.0701 7.67423 11.8901 7.74908 11.7005 7.78573C11.6612 7.79298 11.6249 7.8119 11.5964 7.84004C11.5679 7.86817 11.5485 7.90422 11.5408 7.9435C11.5345 7.98173 11.5394 8.02096 11.555 8.05642C11.5706 8.09188 11.5962 8.12203 11.6286 8.14321L13.3801 9.28355C13.4246 9.31208 13.4786 9.32179 13.5303 9.31056C13.5819 9.29933 13.627 9.26807 13.6557 9.22364L14.7401 7.54009C14.8855 7.98765 15.197 8.36237 15.6105 8.58699C16.024 8.81162 16.508 8.86903 16.9625 8.74738C17.4171 8.62573 17.8077 8.3343 18.0537 7.93318C18.2998 7.53206 18.3825 7.05182 18.285 6.59147H18.2869ZM17.6978 7.75777C17.5304 8.01705 17.2839 8.2155 16.9949 8.3237C16.7059 8.4319 16.3897 8.4441 16.0931 8.35848C15.7966 8.27287 15.5356 8.094 15.3487 7.84839C15.1619 7.60278 15.0591 7.30349 15.0557 6.99489C15.0555 6.95182 15.0415 6.90994 15.0157 6.8755C14.9898 6.84106 14.9535 6.8159 14.9122 6.80377C14.8709 6.79165 14.8267 6.7932 14.7864 6.80821C14.746 6.82322 14.7116 6.85087 14.6882 6.88704L13.43 8.8402L12.1898 8.04136C12.4863 7.90193 12.7401 7.68565 12.9248 7.415C13.1095 7.14435 13.2184 6.8292 13.2401 6.50226C13.2618 6.17532 13.1956 5.84853 13.0484 5.55581C12.9012 5.2631 12.6783 5.01513 12.4028 4.83767C12.1274 4.66021 11.8094 4.55973 11.4821 4.54665C11.1547 4.53357 10.8297 4.60838 10.541 4.76331C10.2523 4.91824 10.0103 5.14763 9.8402 5.42767C9.67009 5.70771 9.57805 6.02819 9.57364 6.35582L8.30949 5.541L10.9257 1.48491C11.1066 1.20397 11.3917 1.00637 11.7182 0.93559C12.0448 0.864808 12.3861 0.926631 12.6671 1.10746L16.7292 3.72365L15.6628 5.37924C15.6396 5.41532 15.6286 5.45791 15.6315 5.50071C15.6343 5.54351 15.6509 5.58425 15.6787 5.61689C15.7065 5.64953 15.744 5.6724 15.7857 5.6821C15.8274 5.69181 15.8711 5.68786 15.9104 5.67081C16.1933 5.54219 16.5104 5.50884 16.8139 5.57576C17.1174 5.64269 17.391 5.80628 17.5936 6.04197C17.7962 6.27766 17.9168 6.57271 17.9374 6.88282C17.958 7.19293 17.8774 7.50136 17.7078 7.76177L17.6978 7.75777Z" fill="#AD9681"/>
<path d="M13.1808 11.6102H11.012C10.9687 11.6098 10.9265 11.6236 10.8918 11.6493C10.857 11.675 10.8315 11.7113 10.8191 11.7527C10.8067 11.7941 10.8081 11.8384 10.8231 11.879C10.8381 11.9196 10.8658 11.9542 10.9021 11.9776C11.1607 12.1476 11.3575 12.3964 11.4634 12.6871C11.5692 12.9779 11.5785 13.295 11.4898 13.5914C11.4011 13.8878 11.2192 14.1477 10.971 14.3325C10.7228 14.5173 10.4217 14.6171 10.1123 14.6171C9.80286 14.6171 9.50171 14.5173 9.25354 14.3325C9.00537 14.1477 8.82342 13.8878 8.73472 13.5914C8.64602 13.295 8.65529 12.9779 8.76117 12.6871C8.86704 12.3964 9.06387 12.1476 9.32242 11.9776C9.35874 11.9542 9.38646 11.9196 9.40143 11.879C9.4164 11.8384 9.41779 11.7941 9.40541 11.7527C9.39303 11.7113 9.36753 11.675 9.33276 11.6493C9.29799 11.6236 9.25581 11.6098 9.21258 11.6102H6.88996V10.1343C7.16798 10.309 7.48773 10.406 7.81594 10.4152C8.14415 10.4244 8.46883 10.3455 8.7562 10.1866C9.04357 10.0278 9.28313 9.79488 9.44995 9.51208C9.61677 9.22927 9.70475 8.90693 9.70475 8.57859C9.70475 8.25025 9.61677 7.92791 9.44995 7.6451C9.28313 7.3623 9.04357 7.12936 8.7562 6.97053C8.46883 6.8117 8.14415 6.73279 7.81594 6.74199C7.48773 6.75119 7.16798 6.84818 6.88996 7.02286V5.31934C6.88996 5.26637 6.86892 5.21557 6.83147 5.17812C6.79401 5.14067 6.74322 5.11963 6.69025 5.11963H1.65958C1.2196 5.12016 0.797782 5.29518 0.486664 5.60629C0.175547 5.91741 0.000528513 6.33922 0 6.77921V16.8405C0.000528513 17.2805 0.175547 17.7024 0.486664 18.0135C0.797782 18.3246 1.2196 18.4996 1.65958 18.5001H11.7209C12.1609 18.4996 12.5827 18.3246 12.8938 18.0135C13.205 17.7024 13.38 17.2805 13.3805 16.8405V11.8099C13.3805 11.7569 13.3595 11.7061 13.322 11.6687C13.2846 11.6312 13.2338 11.6102 13.1808 11.6102ZM0.399418 6.77921C0.399946 6.44516 0.532883 6.12494 0.769095 5.88872C1.00531 5.65251 1.32553 5.51958 1.65958 5.51905H6.49054V7.44224C6.4909 7.4819 6.50306 7.52055 6.52547 7.55327C6.54787 7.586 6.57951 7.6113 6.61636 7.62598C6.65311 7.64077 6.69343 7.64431 6.73219 7.63613C6.77095 7.62795 6.80641 7.60843 6.83404 7.58004C6.96734 7.4406 7.12762 7.32974 7.30512 7.25421C7.48262 7.17868 7.67363 7.14005 7.86654 7.14068C8.23836 7.15455 8.59033 7.312 8.84848 7.57996C9.10663 7.84792 9.25086 8.20551 9.25086 8.57759C9.25086 8.94967 9.10663 9.30726 8.84848 9.57522C8.59033 9.84318 8.23836 10.0006 7.86654 10.0145C7.6739 10.0153 7.48313 9.97678 7.30592 9.90123C7.12871 9.82567 6.96882 9.71471 6.83604 9.57514C6.80824 9.54635 6.77243 9.52658 6.73326 9.51839C6.69409 9.5102 6.65336 9.51397 6.61636 9.5292C6.57951 9.54388 6.54787 9.56918 6.52547 9.60191C6.50306 9.63463 6.4909 9.67328 6.49054 9.71294V11.6102H4.72511C4.92583 11.3364 5.04675 11.0123 5.07447 10.6739C5.10218 10.3355 5.03559 9.9961 4.8821 9.69328C4.72861 9.39045 4.49422 9.13608 4.20493 8.95838C3.91564 8.78068 3.58278 8.68662 3.24327 8.68662C2.90377 8.68662 2.57091 8.78068 2.28162 8.95838C1.99233 9.13608 1.75794 9.39045 1.60445 9.69328C1.45095 9.9961 1.38437 10.3355 1.41208 10.6739C1.43979 11.0123 1.56072 11.3364 1.76143 11.6102H0.399418V6.77921ZM0.399418 16.8405V12.0096H2.23075C2.27203 12.0094 2.31225 11.9965 2.34587 11.9725C2.37949 11.9485 2.40485 11.9148 2.41848 11.8758C2.43185 11.8366 2.43268 11.7942 2.42088 11.7544C2.40907 11.7147 2.3852 11.6797 2.35257 11.6541C2.11777 11.4692 1.94643 11.2157 1.86239 10.9288C1.77834 10.642 1.78577 10.3361 1.88363 10.0537C1.98149 9.77129 2.16493 9.52639 2.40843 9.35307C2.65193 9.17974 2.94339 9.0866 3.24228 9.0866C3.54116 9.0866 3.83262 9.17974 4.07612 9.35307C4.31962 9.52639 4.50306 9.77129 4.60092 10.0537C4.69878 10.3361 4.70621 10.642 4.62216 10.9288C4.53812 11.2157 4.36678 11.4692 4.13198 11.6541C4.10054 11.6792 4.07743 11.7133 4.06567 11.7518C4.05391 11.7902 4.05405 11.8314 4.06608 11.8698C4.07981 11.9091 4.10548 11.9431 4.1395 11.9671C4.17351 11.9911 4.21417 12.0038 4.2558 12.0036H6.49054V14.1165C6.21995 13.9017 5.89426 13.7675 5.55085 13.7293C5.20744 13.6912 4.86024 13.7507 4.5491 13.9009C4.23796 14.0511 3.97549 14.2861 3.79182 14.5787C3.60814 14.8714 3.51072 15.2099 3.51072 15.5554C3.51072 15.9009 3.60814 16.2395 3.79182 16.5321C3.97549 16.8248 4.23796 17.0597 4.5491 17.2099C4.86024 17.3602 5.20744 17.4197 5.55085 17.3815C5.89426 17.3434 6.21995 17.2092 6.49054 16.9943V18.1007H1.65958C1.32553 18.1002 1.00531 17.9672 0.769095 17.731C0.532883 17.4948 0.399946 17.1746 0.399418 16.8405ZM12.9811 16.8405C12.9806 17.1746 12.8476 17.4948 12.6114 17.731C12.3752 17.9672 12.055 18.1002 11.7209 18.1007H6.88996V16.503C6.89198 16.459 6.87936 16.4155 6.85407 16.3794C6.82878 16.3433 6.79225 16.3165 6.75016 16.3033C6.70966 16.2906 6.66613 16.291 6.62591 16.3047C6.58568 16.3183 6.55086 16.3444 6.52649 16.3792C6.35093 16.6295 6.10019 16.8173 5.81065 16.9153C5.52112 17.0134 5.20787 17.0166 4.91637 16.9246C4.62486 16.8325 4.37029 16.65 4.18958 16.4034C4.00888 16.1569 3.91146 15.8591 3.91146 15.5534C3.91146 15.2477 4.00888 14.95 4.18958 14.7034C4.37029 14.4569 4.62486 14.2743 4.91637 14.1823C5.20787 14.0902 5.52112 14.0935 5.81065 14.1915C6.10019 14.2896 6.35093 14.4774 6.52649 14.7276C6.55086 14.7624 6.58568 14.7885 6.62591 14.8022C6.66613 14.8158 6.70966 14.8163 6.75016 14.8035C6.79225 14.7903 6.82878 14.7636 6.85407 14.7275C6.87936 14.6913 6.89198 14.6479 6.88996 14.6038V12.0076H8.68734C8.46613 12.2765 8.32588 12.6028 8.28296 12.9483C8.24004 13.2939 8.2962 13.6445 8.4449 13.9594C8.59361 14.2743 8.82872 14.5404 9.12287 14.7268C9.41701 14.9132 9.75805 15.0121 10.1063 15.0121C10.4545 15.0121 10.7955 14.9132 11.0897 14.7268C11.3838 14.5404 11.6189 14.2743 11.7676 13.9594C11.9163 13.6445 11.9725 13.2939 11.9296 12.9483C11.8867 12.6028 11.7464 12.2765 11.5252 12.0076H12.9811V16.8405Z" fill="#AD9681"/>
</svg>
