<svg width="18" height="19" viewBox="0 0 18 19" fill="none" xmlns="http://www.w3.org/2000/svg">
<g clip-path="url(#clip0_0_675)">
<path d="M15.975 6.94655C16.0993 6.94655 16.2 6.84578 16.2 6.7215V3.05378C16.2 2.9295 16.0993 2.82874 15.975 2.82874C15.8507 2.82874 15.7499 2.9295 15.7499 3.05378V6.7215C15.7499 6.84578 15.8507 6.94655 15.975 6.94655Z" fill="#AD9681"/>
<path d="M2.02493 12.0538C1.90081 12.0538 1.80005 12.1544 1.80005 12.2789V15.9464C1.80005 16.0709 1.90081 16.1715 2.02493 16.1715C2.14921 16.1715 2.24997 16.0709 2.24997 15.9464V12.2789C2.24997 12.1544 2.14921 12.0538 2.02493 12.0538Z" fill="#AD9681"/>
<path d="M0.225048 18.5002H17.775C17.8993 18.5002 18.0001 18.3994 18.0001 18.2751V0.72517C18.0001 0.600716 17.8993 0.500122 17.775 0.500122H0.225048C0.100765 0.500122 0 0.600716 0 0.72517V18.2751C0 18.3994 0.100765 18.5002 0.225048 18.5002ZM0.449924 9.7252H8.77499V18.0501H0.449924V9.7252ZM9.22508 18.0501V9.7252H17.55V18.0501H9.22508ZM17.55 9.27511H9.22508V0.950047H17.55V9.27511ZM8.77499 0.950047V9.27511H0.449924V0.950047H8.77499Z" fill="#AD9681"/>
</g>
<defs>
<clipPath id="clip0_0_675">
<rect width="18" height="18" fill="white" transform="translate(0 0.500122)"/>
</clipPath>
</defs>
</svg>
