<svg width="18" height="19" viewBox="0 0 18 19" fill="none" xmlns="http://www.w3.org/2000/svg">
<g clip-path="url(#clip0_0_700)">
<path d="M11.4609 5.07043C11.4609 4.63815 11.3474 4.21311 11.1325 3.84134L9.30442 0.675868C9.24163 0.567095 9.12558 0.500122 9 0.500122C8.87442 0.500122 8.75837 0.567095 8.69558 0.675868L6.86746 3.84127C6.65262 4.21311 6.53906 4.63815 6.53906 5.07043C6.53906 6.42743 7.643 7.53137 9 7.53137C10.357 7.53137 11.4609 6.42743 11.4609 5.07043ZM7.24219 5.07043C7.24219 4.76152 7.32315 4.45808 7.47629 4.19297L9 1.55463L10.5237 4.19304C10.6768 4.45808 10.7578 4.76152 10.7578 5.07043C10.7578 6.03969 9.96926 6.82825 9 6.82825C8.03074 6.82825 7.24219 6.03969 7.24219 5.07043Z" fill="#AD9681"/>
<path d="M17.5307 9.01001L14.7888 4.26181C14.726 4.15303 14.61 4.08606 14.4844 4.08606C14.3588 4.08606 14.2427 4.15303 14.1799 4.26181L11.4382 9.00994C11.1311 9.54133 10.9688 10.1485 10.9688 10.7657C10.9688 12.7043 12.5458 14.2814 14.4844 14.2814C16.4229 14.2814 18 12.7043 18 10.7657C18 10.1485 17.8377 9.54133 17.5307 9.01001ZM14.4844 13.5782C12.9336 13.5782 11.6719 12.3166 11.6719 10.7657C11.6719 10.2718 11.8016 9.78633 12.047 9.36164L14.4844 5.14064L16.9218 9.36168C17.1672 9.78633 17.2969 10.2718 17.2969 10.7657C17.2969 12.3166 16.0352 13.5782 14.4844 13.5782Z" fill="#AD9681"/>
<path d="M15.2237 9.93739C15.0557 10.0347 14.9983 10.2497 15.0956 10.4178C15.1557 10.5216 15.1875 10.6402 15.1875 10.7605V10.7658C15.1875 11.1535 14.872 11.4689 14.4843 11.4689C14.2902 11.4689 14.1328 11.6264 14.1328 11.8205C14.1328 12.0146 14.2902 12.1721 14.4843 12.1721C15.2598 12.1721 15.8906 11.5412 15.8906 10.7658V10.7605C15.8906 10.5166 15.8261 10.2763 15.7041 10.0655C15.6068 9.89745 15.3918 9.84011 15.2237 9.93739Z" fill="#AD9681"/>
<path d="M7.03125 13.9299V13.9242C7.03125 13.4962 6.91812 13.0736 6.70412 12.7021C6.60716 12.5339 6.39236 12.476 6.22399 12.573C6.05577 12.67 5.99794 12.8849 6.09486 13.0531C6.24748 13.318 6.32812 13.6192 6.32812 13.9242V13.9299C6.32812 14.8991 5.53957 15.6877 4.57031 15.6877C4.37618 15.6877 4.21875 15.8451 4.21875 16.0392C4.21875 16.2334 4.37618 16.3908 4.57031 16.3908C5.92727 16.3908 7.03125 15.2868 7.03125 13.9299Z" fill="#AD9681"/>
<path d="M4.57028 18.5001C4.76444 18.5001 4.92184 18.3427 4.92184 18.1486C4.92184 17.9544 4.76444 17.797 4.57028 17.797C4.37612 17.797 4.21872 17.9544 4.21872 18.1486C4.21872 18.3427 4.37612 18.5001 4.57028 18.5001Z" fill="#AD9681"/>
<path d="M4.57031 5.14075C4.44473 5.14075 4.32868 5.20772 4.26586 5.31649L0.609961 11.6475C0.210902 12.3385 0 13.1278 0 13.9298C0 15.8338 1.17063 17.4993 2.88636 18.1797C3.06696 18.2513 3.27118 18.163 3.34276 17.9826C3.41434 17.8021 3.32603 17.5977 3.14557 17.5262C1.66184 16.9377 0.703125 15.5261 0.703125 13.9298C0.703125 13.251 0.881437 12.5834 1.21887 11.9991L4.57031 6.19533L7.92176 11.999C8.25919 12.5834 8.4375 13.251 8.4375 13.9298C8.4375 15.5261 7.47875 16.9378 5.99502 17.5262C5.81453 17.5977 5.72621 17.8021 5.79783 17.9826C5.86905 18.1621 6.07282 18.2516 6.25423 18.1797C7.96873 17.4999 9.14062 15.8353 9.14062 13.9298C9.14062 13.1278 8.92972 12.3385 8.53066 11.6474L4.87477 5.31649C4.81194 5.20772 4.69589 5.14075 4.57031 5.14075Z" fill="#AD9681"/>
</g>
<defs>
<clipPath id="clip0_0_700">
<rect width="18" height="18" fill="white" transform="translate(0 0.500122)"/>
</clipPath>
</defs>
</svg>
