<svg width="18" height="19" viewBox="0 0 18 19" fill="none" xmlns="http://www.w3.org/2000/svg">
<path d="M5.46687 4.18074C7.81785 3.97637 10.1821 3.97637 12.5331 4.18074L13.6658 4.2792C14.4198 4.34475 15.0656 4.7945 15.4002 5.43783C15.443 5.52013 15.4109 5.61978 15.3321 5.66861L10.6326 8.57781C9.6247 9.20174 8.35381 9.21483 7.33327 8.61179L2.6024 5.81628C2.52597 5.77111 2.49089 5.67814 2.52533 5.59632C2.83145 4.86914 3.51967 4.35001 4.3342 4.2792L5.46687 4.18074Z" fill="#AD9681"/>
<path d="M2.52148 7.07519C2.40451 7.00607 2.25526 7.08045 2.24162 7.21563C2.05132 9.10236 2.09738 11.0069 2.3798 12.885C2.52868 13.8751 3.33674 14.6341 4.3342 14.7209L5.46687 14.8193C7.81785 15.0237 10.1821 15.0237 12.5331 14.8193L13.6658 14.7209C14.6632 14.6341 15.4713 13.8751 15.6202 12.885C15.9108 10.9522 15.9511 8.99133 15.7411 7.05074C15.7264 6.9146 15.5746 6.84159 15.4582 6.91366L11.2247 9.53435C9.86112 10.3785 8.14168 10.3962 6.76095 9.58033L2.52148 7.07519Z" fill="#AD9681"/>
</svg>
