<svg width="16" height="16" viewBox="0 0 16 16" fill="none" xmlns="http://www.w3.org/2000/svg">
<path d="M9.46666 1.91675C8.64891 1.91675 7.86465 2.2416 7.28642 2.81984C6.70818 3.39807 6.38333 4.18233 6.38333 5.00008V6.71675H4.73333C4.65049 6.71675 4.58333 6.78391 4.58333 6.86675V9.13341C4.58333 9.21626 4.65049 9.28341 4.73333 9.28341H6.38333V13.9334C6.38333 14.0163 6.45049 14.0834 6.53333 14.0834H8.79999C8.88284 14.0834 8.95 14.0163 8.95 13.9334V9.28341H10.6146C10.6834 9.28341 10.7434 9.23657 10.7601 9.1698L11.3268 6.90313C11.3505 6.80846 11.2789 6.71675 11.1813 6.71675H8.95V5.00008C8.95 4.86305 9.00443 4.73164 9.10132 4.63474C9.19822 4.53785 9.32963 4.48341 9.46666 4.48341H11.2C11.2828 4.48341 11.35 4.41626 11.35 4.33341V2.06675C11.35 1.98391 11.2828 1.91675 11.2 1.91675H9.46666Z" fill="#6C7175"/>
</svg>
