<svg width="13" height="13" viewBox="0 0 13 13" fill="none" xmlns="http://www.w3.org/2000/svg">
<path d="M7.69165 1.55737C7.02722 1.55737 6.39001 1.82131 5.9202 2.29113C5.45038 2.76095 5.18644 3.39816 5.18644 4.06258V5.45737H3.84581C3.7785 5.45737 3.72394 5.51194 3.72394 5.57925V7.42091C3.72394 7.48822 3.7785 7.54279 3.84581 7.54279H5.18644V11.3209C5.18644 11.3882 5.241 11.4428 5.30831 11.4428H7.14998C7.21729 11.4428 7.27186 11.3882 7.27186 11.3209V7.54279H8.62436C8.68028 7.54279 8.72903 7.50473 8.74259 7.45047L9.20301 5.60881C9.22224 5.53189 9.16406 5.45737 9.08477 5.45737H7.27186V4.06258C7.27186 3.95125 7.31608 3.84447 7.39481 3.76574C7.47354 3.68702 7.58031 3.64279 7.69165 3.64279H9.09998C9.16729 3.64279 9.22186 3.58822 9.22186 3.52091V1.67925C9.22186 1.61194 9.16729 1.55737 9.09998 1.55737H7.69165Z" fill="#5F4D3C"/>
</svg>
