<svg width="16" height="16" viewBox="0 0 16 16" fill="none" xmlns="http://www.w3.org/2000/svg">
<path d="M8 5.8334C6.80338 5.8334 5.83333 6.80345 5.83333 8.00007C5.83333 9.19669 6.80338 10.1667 8 10.1667C9.19662 10.1667 10.1667 9.19669 10.1667 8.00007C10.1667 6.80345 9.19662 5.8334 8 5.8334Z" fill="#6C7175"/>
<path fill-rule="evenodd" clip-rule="evenodd" d="M4.51303 2.05438C6.81177 1.79746 9.18824 1.79746 11.487 2.05438C12.7526 2.19583 13.7734 3.19302 13.9219 4.46305C14.1968 6.81306 14.1968 9.18709 13.9219 11.5371C13.7734 12.8071 12.7526 13.8043 11.487 13.9458C9.18824 14.2027 6.81177 14.2027 4.51303 13.9458C3.24743 13.8043 2.22663 12.8071 2.07809 11.5371C1.80323 9.18709 1.80323 6.81306 2.07809 4.46305C2.22663 3.19302 3.24743 2.19583 4.51303 2.05438ZM11.3333 4.00007C10.9651 4.00007 10.6667 4.29855 10.6667 4.66674C10.6667 5.03493 10.9651 5.3334 11.3333 5.3334C11.7015 5.3334 12 5.03493 12 4.66674C12 4.29855 11.7015 4.00007 11.3333 4.00007ZM4.83333 8.00007C4.83333 6.25117 6.2511 4.8334 8 4.8334C9.7489 4.8334 11.1667 6.25117 11.1667 8.00007C11.1667 9.74897 9.7489 11.1667 8 11.1667C6.2511 11.1667 4.83333 9.74897 4.83333 8.00007Z" fill="#6C7175"/>
</svg>
