<svg width="13" height="13" viewBox="0 0 13 13" fill="none" xmlns="http://www.w3.org/2000/svg">
<path d="M6.49998 4.73947C5.52773 4.73947 4.73956 5.52763 4.73956 6.49988C4.73956 7.47213 5.52773 8.2603 6.49998 8.2603C7.47223 8.2603 8.26039 7.47213 8.26039 6.49988C8.26039 5.52763 7.47223 4.73947 6.49998 4.73947Z" fill="#5F4D3C"/>
<path fill-rule="evenodd" clip-rule="evenodd" d="M3.66681 1.66901C5.53454 1.46026 7.46543 1.46026 9.33316 1.66901C10.3615 1.78394 11.1909 2.59415 11.3115 3.62606C11.5349 5.53543 11.5349 7.46433 11.3115 9.37371C11.1909 10.4056 10.3615 11.2158 9.33316 11.3308C7.46543 11.5395 5.53454 11.5395 3.66681 11.3308C2.63851 11.2158 1.80911 10.4056 1.68842 9.37371C1.46511 7.46433 1.46511 5.53543 1.68842 3.62606C1.80911 2.59415 2.63851 1.78394 3.66681 1.66901ZM9.20831 3.24988C8.90916 3.24988 8.66664 3.49239 8.66664 3.79155C8.66664 4.0907 8.90916 4.33322 9.20831 4.33322C9.50746 4.33322 9.74998 4.0907 9.74998 3.79155C9.74998 3.49239 9.50746 3.24988 9.20831 3.24988ZM3.92706 6.49988C3.92706 5.0789 5.07899 3.92697 6.49998 3.92697C7.92096 3.92697 9.07289 5.0789 9.07289 6.49988C9.07289 7.92086 7.92096 9.0728 6.49998 9.0728C5.07899 9.0728 3.92706 7.92086 3.92706 6.49988Z" fill="#5F4D3C"/>
</svg>
