<svg width="16" height="17" viewBox="0 0 16 17" fill="none" xmlns="http://www.w3.org/2000/svg">
<path d="M6.3131 4.85351C6.50837 5.04877 6.82495 5.04877 7.02021 4.85351L7.49999 4.37373V7.99996H3.87376L4.35354 7.52018C4.54881 7.32492 4.54881 7.00834 4.35354 6.81307C4.15828 6.61781 3.8417 6.61781 3.64644 6.81307L2.3131 8.14641C2.11784 8.34167 2.11784 8.65825 2.3131 8.85351L3.64644 10.1868C3.8417 10.3821 4.15828 10.3821 4.35354 10.1868C4.54881 9.99158 4.54881 9.675 4.35354 9.47974L3.87376 8.99996H7.49999V12.6262L7.02021 12.1464C6.82495 11.9511 6.50837 11.9511 6.3131 12.1464C6.11784 12.3417 6.11784 12.6583 6.3131 12.8535L7.64644 14.1868C7.8417 14.3821 8.15828 14.3821 8.35354 14.1868L9.68688 12.8535C9.88214 12.6583 9.88214 12.3417 9.68688 12.1464C9.49161 11.9511 9.17503 11.9511 8.97977 12.1464L8.49999 12.6262V8.99996H12.1262L11.6464 9.47974C11.4512 9.675 11.4512 9.99158 11.6464 10.1868C11.8417 10.3821 12.1583 10.3821 12.3535 10.1868L13.6869 8.85351C13.8821 8.65825 13.8821 8.34167 13.6869 8.14641L12.3535 6.81307C12.1583 6.61781 11.8417 6.61781 11.6464 6.81307C11.4512 7.00833 11.4512 7.32492 11.6464 7.52018L12.1262 7.99996H8.49999V4.37373L8.97977 4.85351C9.17503 5.04877 9.49161 5.04877 9.68688 4.85351C9.88214 4.65825 9.88214 4.34167 9.68688 4.14641L8.35354 2.81307C8.15828 2.61781 7.8417 2.61781 7.64644 2.81307L6.3131 4.14641C6.11784 4.34167 6.11784 4.65825 6.3131 4.85351Z" fill="white"/>
</svg>
