<svg width="18" height="19" viewBox="0 0 18 19" fill="none" xmlns="http://www.w3.org/2000/svg">
<path d="M3.74979 7.89534C5.18709 11.0258 7.74459 13.5146 10.9243 14.8639L11.4339 15.091C12.6001 15.6105 13.9709 15.2158 14.6821 14.1557L15.3482 13.1629C15.5647 12.8401 15.4988 12.4054 15.1963 12.1613L12.9374 10.339C12.6056 10.0713 12.1177 10.1337 11.8639 10.4762L11.1651 11.4191C9.37201 10.5346 7.91622 9.07881 7.03171 7.2857L7.97465 6.58691C8.31715 6.33309 8.37949 5.84521 8.11183 5.51342L6.28942 3.25446C6.04542 2.952 5.61079 2.88603 5.28801 3.10245L4.28838 3.77273C3.22162 4.48801 2.82909 5.87014 3.36064 7.03936L3.7492 7.89407L3.74979 7.89534Z" fill="#AD9681"/>
</svg>
