<svg width="18" height="18" viewBox="0 0 18 18" fill="none" xmlns="http://www.w3.org/2000/svg">
<path d="M8.95085 1.78125C7.27726 1.79265 5.65963 2.38521 4.37469 3.45757C3.08974 4.52992 2.21733 6.01544 1.90669 7.65998C1.59606 9.30453 1.8665 11.0059 2.67176 12.4731C3.47701 13.9403 4.76704 15.082 6.32117 15.7031C6.21671 15.0196 6.21671 14.3242 6.32117 13.6406L7.17195 10.0312C7.03731 9.70437 6.97064 9.35349 6.97601 9C6.97601 7.99969 7.55867 7.24688 8.28054 7.24688C8.41131 7.24491 8.54097 7.27123 8.66062 7.32404C8.78027 7.37685 8.8871 7.4549 8.97377 7.55284C9.06045 7.65078 9.12493 7.7663 9.16281 7.89148C9.20068 8.01667 9.21105 8.14856 9.1932 8.27813C9.1932 8.67702 9.03033 9.2045 8.85933 9.75832C8.76508 10.0636 8.66836 10.3768 8.59507 10.6809C8.55068 10.8406 8.5454 11.0085 8.57968 11.1706C8.61397 11.3327 8.6868 11.4842 8.79202 11.6122C8.89724 11.7401 9.03174 11.8409 9.18415 11.9059C9.33656 11.9708 9.50238 11.9982 9.66757 11.9855C10.9463 11.9855 11.9363 10.6294 11.9363 8.68031C11.9492 8.28425 11.8793 7.88986 11.7313 7.5223C11.5832 7.15473 11.3601 6.82207 11.0763 6.54553C10.7925 6.26899 10.4542 6.05464 10.0829 5.91616C9.71158 5.77768 9.31551 5.71811 8.91992 5.74125C8.49757 5.72311 8.07593 5.79086 7.68052 5.94039C7.28511 6.08993 6.92416 6.31815 6.61951 6.61123C6.31486 6.90431 6.07284 7.25616 5.90812 7.64549C5.74339 8.03481 5.65938 8.45351 5.66117 8.87625C5.65543 9.46517 5.83589 10.0408 6.17679 10.5211C6.20158 10.5486 6.21924 10.5819 6.22823 10.6178C6.23721 10.6538 6.23726 10.6914 6.22835 10.7273C6.17161 10.9543 6.04788 11.4493 6.02726 11.5472C6.00663 11.6452 5.91898 11.707 5.78491 11.6452C4.88257 11.2223 4.32054 9.9075 4.32054 8.84531C4.32054 6.57141 5.9757 4.47797 9.09007 4.47797C11.5909 4.47797 13.5399 6.26203 13.5399 8.64937C13.5399 11.1347 11.993 13.1353 9.79132 13.1353C9.46855 13.1465 9.14809 13.077 8.85903 12.9329C8.56998 12.7888 8.3215 12.5748 8.13617 12.3103L7.68757 14.0273C7.47253 14.6946 7.17089 15.3308 6.79038 15.9197C7.49152 16.1269 8.21979 16.2277 8.95085 16.2188C10.8654 16.2188 12.7015 15.4582 14.0553 14.1044C15.4091 12.7506 16.1696 10.9145 16.1696 9C16.1696 7.08547 15.4091 5.24935 14.0553 3.89557C12.7015 2.54179 10.8654 1.78125 8.95085 1.78125Z" fill="white"/>
</svg>
