<svg width="16" height="16" viewBox="0 0 16 16" fill="none" xmlns="http://www.w3.org/2000/svg">
<path d="M7.95631 1.58337C6.46867 1.59351 5.03078 2.12023 3.88861 3.07343C2.74643 4.02664 1.97096 5.34709 1.69483 6.80891C1.41871 8.27073 1.65911 9.78308 2.37489 11.0872C3.09067 12.3914 4.23737 13.4063 5.61881 13.9584C5.52596 13.3508 5.52596 12.7326 5.61881 12.125L6.37506 8.91671C6.25538 8.62614 6.19612 8.31425 6.20089 8.00004C6.20089 7.11087 6.71881 6.44171 7.36048 6.44171C7.47672 6.43996 7.59197 6.46336 7.69832 6.5103C7.80468 6.55724 7.89963 6.62662 7.97668 6.71368C8.05373 6.80073 8.11105 6.90342 8.14471 7.01469C8.17838 7.12597 8.18759 7.24321 8.17173 7.35837C8.17173 7.71295 8.02695 8.18181 7.87495 8.6741C7.79118 8.94542 7.7052 9.22387 7.64006 9.49421C7.6006 9.6361 7.59591 9.7854 7.62638 9.92949C7.65685 10.0736 7.72159 10.2082 7.81512 10.322C7.90865 10.4357 8.02821 10.5253 8.16368 10.583C8.29916 10.6408 8.44655 10.6651 8.59339 10.6538C9.73006 10.6538 10.6101 9.44837 10.6101 7.71587C10.6215 7.36382 10.5594 7.01325 10.4278 6.68653C10.2962 6.3598 10.0979 6.0641 9.84561 5.81829C9.59332 5.57247 9.29257 5.38194 8.96254 5.25885C8.63251 5.13576 8.28045 5.08281 7.92881 5.10337C7.55339 5.08725 7.1786 5.14747 6.82712 5.28039C6.47565 5.41331 6.1548 5.61617 5.884 5.87669C5.6132 6.1372 5.39808 6.44996 5.25166 6.79603C5.10523 7.1421 5.03056 7.51428 5.03214 7.89004C5.02705 8.41352 5.18746 8.92523 5.49048 9.35212C5.51251 9.37662 5.52821 9.40613 5.5362 9.43809C5.54419 9.47005 5.54422 9.50348 5.53631 9.53546C5.48587 9.73722 5.37589 10.1772 5.35756 10.2642C5.33923 10.3513 5.26131 10.4063 5.14214 10.3513C4.34006 9.97546 3.84047 8.80671 3.84047 7.86254C3.84047 5.84129 5.31173 3.98046 8.08006 3.98046C10.303 3.98046 12.0355 5.56629 12.0355 7.68837C12.0355 9.89754 10.6605 11.6759 8.70339 11.6759C8.41648 11.6859 8.13163 11.624 7.87469 11.4959C7.61776 11.3679 7.39689 11.1776 7.23214 10.9425L6.83339 12.4688C6.64224 13.0619 6.37412 13.6275 6.03589 14.1509C6.65913 14.3351 7.30648 14.4247 7.95631 14.4167C9.65811 14.4167 11.2902 13.7407 12.4936 12.5373C13.6969 11.3339 14.373 9.70185 14.373 8.00004C14.373 6.29823 13.6969 4.66613 12.4936 3.46277C11.2902 2.25941 9.65811 1.58337 7.95631 1.58337Z" fill="#6C7175"/>
</svg>
