<svg width="13" height="13" viewBox="0 0 13 13" fill="none" xmlns="http://www.w3.org/2000/svg">
<path d="M6.46449 1.28638C5.25578 1.29461 4.08749 1.72257 3.15948 2.49705C2.23146 3.27153 1.60139 4.3444 1.37704 5.53213C1.15269 6.71986 1.34801 7.94864 1.92958 9.00826C2.51116 10.0679 3.44284 10.8925 4.56527 11.3411C4.48983 10.8474 4.48983 10.3451 4.56527 9.85148L5.17972 7.24471C5.08248 7.00863 5.03433 6.75521 5.03821 6.49992C5.03821 5.77747 5.45902 5.23377 5.98037 5.23377C6.07482 5.23235 6.16846 5.25136 6.25487 5.2895C6.34129 5.32764 6.41844 5.38401 6.48104 5.45475C6.54364 5.52548 6.59021 5.60891 6.61756 5.69932C6.64492 5.78974 6.6524 5.88499 6.63951 5.97856C6.63951 6.26666 6.52188 6.64761 6.39838 7.04759C6.33031 7.26804 6.26046 7.49428 6.20753 7.71393C6.17547 7.82921 6.17166 7.95052 6.19642 8.06759C6.22118 8.18466 6.27378 8.29404 6.34977 8.38648C6.42576 8.47891 6.52291 8.55167 6.63298 8.5986C6.74305 8.64553 6.86281 8.66525 6.98212 8.65609C7.90566 8.65609 8.62066 7.67669 8.62066 6.26903C8.62994 5.98299 8.57951 5.69815 8.47256 5.43269C8.36562 5.16723 8.20452 4.92697 7.99954 4.72725C7.79456 4.52752 7.5502 4.37271 7.28205 4.2727C7.0139 4.17269 6.72785 4.12967 6.44214 4.14638C6.13711 4.13328 5.83259 4.1822 5.54702 4.2902C5.26145 4.3982 5.00076 4.56302 4.78074 4.77469C4.56071 4.98636 4.38592 5.24048 4.26695 5.52166C4.14799 5.80284 4.08731 6.10524 4.0886 6.41054C4.08446 6.83587 4.21479 7.25164 4.461 7.59849C4.4789 7.61839 4.49165 7.64237 4.49814 7.66833C4.50463 7.6943 4.50467 7.72146 4.49823 7.74745C4.45725 7.91138 4.36789 8.26882 4.353 8.33955C4.3381 8.41031 4.2748 8.455 4.17797 8.41031C3.52628 8.10494 3.12037 7.15534 3.12037 6.3882C3.12037 4.74593 4.31576 3.23401 6.56503 3.23401C8.37115 3.23401 9.77881 4.5225 9.77881 6.24669C9.77881 8.04164 8.66162 9.48653 7.07149 9.48653C6.83838 9.49465 6.60693 9.44439 6.39817 9.34034C6.18941 9.23628 6.00996 9.08172 5.8761 8.8907L5.55212 10.1308C5.39681 10.6127 5.17896 11.0722 4.90415 11.4975C5.41052 11.6471 5.9365 11.7199 6.46449 11.7135C7.8472 11.7135 9.17329 11.1642 10.151 10.1864C11.1287 9.20872 11.678 7.88264 11.678 6.49992C11.678 5.1172 11.1287 3.79112 10.151 2.81339C9.17329 1.83566 7.8472 1.28638 6.46449 1.28638Z" fill="#5F4D3C"/>
</svg>
