<svg width="19" height="19" viewBox="0 0 19 19" fill="none" xmlns="http://www.w3.org/2000/svg">
<path fill-rule="evenodd" clip-rule="evenodd" d="M11.2888 12.0843C9.3011 13.6763 6.39152 13.551 4.54893 11.7084C2.5719 9.73136 2.5719 6.52596 4.54893 4.54893C6.52596 2.5719 9.73136 2.57191 11.7084 4.54893C13.551 6.39152 13.6763 9.30109 12.0843 11.2888L15.951 15.1555C16.1707 15.3752 16.1707 15.7313 15.951 15.951C15.7313 16.1707 15.3752 16.1707 15.1555 15.951L11.2888 12.0843ZM5.34443 10.9129C3.80674 9.37521 3.80674 6.88212 5.34443 5.34443C6.88212 3.80674 9.37521 3.80674 10.9129 5.34443C12.4495 6.88099 12.4506 9.37155 10.9163 10.9095C10.9151 10.9106 10.914 10.9117 10.9129 10.9129C10.9118 10.914 10.9106 10.9151 10.9095 10.9163C9.37155 12.4506 6.88099 12.4495 5.34443 10.9129Z" fill="white"/>
</svg>
