<svg width="18" height="18" viewBox="0 0 18 18" fill="none" xmlns="http://www.w3.org/2000/svg">
<path d="M16.7399 8.13387L16.2738 6.26936C16.4012 6.24229 16.4969 6.12923 16.4969 5.99377V5.69315C16.4969 5.04044 15.9658 4.50944 15.3131 4.50944H13.19V3.88935C13.19 3.56817 12.9287 3.30688 12.6075 3.30688H1.78495C1.46377 3.30688 1.20248 3.56817 1.20248 3.88935V9.00002C1.20248 9.15565 1.32866 9.28187 1.48433 9.28187C1.63997 9.28187 1.76618 9.15569 1.76618 9.00002V3.88935C1.76618 3.87898 1.77458 3.87058 1.78495 3.87058H12.6075C12.6179 3.87058 12.6263 3.87898 12.6263 3.88935V9.00009C12.6263 9.15573 12.7524 9.28194 12.9081 9.28194C13.0637 9.28194 13.19 9.15576 13.19 9.00009V8.68059H16.5146C16.5149 8.68059 16.5151 8.68066 16.5154 8.68066C16.5157 8.68066 16.5159 8.68062 16.5162 8.68062C16.9253 8.6809 17.2727 8.94943 17.392 9.31945H16.5156C16.36 9.31945 16.2337 9.44562 16.2337 9.60129V10.2025C16.2337 10.6895 16.6299 11.0856 17.1168 11.0856H17.4363V12.3257H16.6993C16.4572 11.6267 15.7927 11.1232 15.0125 11.1232C14.2322 11.1232 13.5676 11.6267 13.3256 12.3257H13.1899V10.2025C13.1899 10.0469 13.0637 9.92065 12.908 9.92065C12.7524 9.92065 12.6262 10.0468 12.6262 10.2025V12.3256H6.77872C6.53664 11.6266 5.87215 11.1231 5.09186 11.1231C4.31156 11.1231 3.64704 11.6266 3.40499 12.3256H1.78495C1.77458 12.3256 1.76618 12.3172 1.76618 12.3068V11.6868H2.98747C3.14311 11.6868 3.26932 11.5606 3.26932 11.405C3.26932 11.2493 3.14314 11.1231 2.98747 11.1231H0.281848C0.126211 11.1231 0 11.2493 0 11.405C0 11.5606 0.126176 11.6868 0.281848 11.6868H1.20252V12.3068C1.20252 12.628 1.4638 12.8893 1.78499 12.8893H3.30739C3.30732 12.8956 3.3069 12.9018 3.3069 12.9081C3.3069 13.8923 4.10766 14.693 5.09186 14.693C6.07606 14.693 6.87681 13.8923 6.87681 12.9081C6.87681 12.9018 6.87639 12.8956 6.87632 12.8893H13.228C13.2279 12.8956 13.2275 12.9018 13.2275 12.9081C13.2275 13.8923 14.0283 14.693 15.0125 14.693C15.9967 14.693 16.7974 13.8923 16.7974 12.9081C16.7974 12.9018 16.797 12.8956 16.7969 12.8893H17.7181C17.8738 12.8893 18 12.7631 18 12.6075V9.60123C18 8.85901 17.4524 8.24233 16.7399 8.13387ZM13.19 5.0731H15.3131C15.655 5.0731 15.9332 5.35126 15.9332 5.69315V5.71192H13.19V5.0731ZM13.19 8.11693V6.27558H15.6943L16.1547 8.11693H13.19ZM5.09186 14.1295C4.41844 14.1295 3.87056 13.5816 3.87056 12.9082C3.87056 12.2347 4.41844 11.6869 5.09186 11.6869C5.76527 11.6869 6.31315 12.2347 6.31315 12.9082C6.31315 13.5816 5.76527 14.1295 5.09186 14.1295ZM15.0125 14.1295C14.3391 14.1295 13.7912 13.5816 13.7912 12.9082C13.7912 12.2347 14.3391 11.6869 15.0125 11.6869C15.6859 11.6869 16.2338 12.2347 16.2338 12.9082C16.2338 13.5816 15.6859 14.1295 15.0125 14.1295ZM17.4363 10.5219H17.1169C16.9408 10.5219 16.7975 10.3786 16.7975 10.2025V9.88307H17.4363V10.5219H17.4363Z" fill="black"/>
<path d="M5.09187 12.3257C4.77068 12.3257 4.5094 12.587 4.5094 12.9082C4.5094 13.2293 4.77068 13.4906 5.09187 13.4906C5.41306 13.4906 5.67434 13.2293 5.67434 12.9082C5.67434 12.587 5.41306 12.3257 5.09187 12.3257Z" fill="black"/>
<path d="M15.0125 12.3257C14.6913 12.3257 14.4301 12.587 14.4301 12.9082C14.4301 13.2293 14.6913 13.4906 15.0125 13.4906C15.3337 13.4906 15.595 13.2293 15.595 12.9082C15.595 12.587 15.3337 12.3257 15.0125 12.3257Z" fill="black"/>
<path d="M11.7056 11.1233H7.49687C7.34124 11.1233 7.21503 11.2495 7.21503 11.4051C7.21503 11.5608 7.3412 11.687 7.49687 11.687H11.7056C11.8613 11.687 11.9875 11.5608 11.9875 11.4051C11.9875 11.2495 11.8613 11.1233 11.7056 11.1233Z" fill="black"/>
<path d="M4.49063 9.92065H0.883105C0.727468 9.92065 0.601257 10.0468 0.601257 10.2025C0.601257 10.3582 0.727433 10.4843 0.883105 10.4843H4.49063C4.64627 10.4843 4.77248 10.3582 4.77248 10.2025C4.77248 10.0468 4.64627 9.92065 4.49063 9.92065Z" fill="black"/>
<path d="M9.80054 6.09498C9.69051 5.98494 9.51202 5.98494 9.40198 6.09501L6.89562 8.60134L5.59178 7.2975C5.4817 7.18742 5.30325 7.18742 5.19321 7.2975C5.08314 7.40757 5.08314 7.58599 5.19321 7.69606L6.69635 9.1992C6.75137 9.25426 6.82351 9.28175 6.89562 9.28175C6.96772 9.28175 7.0399 9.25426 7.09488 9.1992L9.80051 6.49358C9.91058 6.38347 9.91058 6.20505 9.80054 6.09498Z" fill="black"/>
</svg>
