<svg width="18" height="18" viewBox="0 0 18 18" fill="none" xmlns="http://www.w3.org/2000/svg">
<path fill-rule="evenodd" clip-rule="evenodd" d="M7.86477 3.08566C8.37058 2.21396 9.62941 2.21396 10.1352 3.08566L11.6842 5.75518C11.827 6.00124 12.0738 6.16916 12.3551 6.21165L14.9273 6.60015C16.0486 6.7695 16.4419 8.18518 15.5687 8.90863L13.6945 10.4614C13.4314 10.6793 13.3077 11.0231 13.3716 11.3587L13.8966 14.1156C14.1023 15.1956 12.9686 16.0347 11.9958 15.5225L9.43678 14.1751C9.16338 14.0311 8.83661 14.0311 8.56321 14.1751L6.00419 15.5225C5.03143 16.0347 3.89771 15.1956 4.10335 14.1156L4.62834 11.3587C4.69224 11.0231 4.56855 10.6793 4.3055 10.4614L2.43132 8.90863C1.55811 8.18518 1.95141 6.7695 3.07266 6.60015L5.64489 6.21165C5.92619 6.16916 6.17297 6.00124 6.31576 5.75518L7.86477 3.08566ZM9.16217 3.65028C9.08991 3.52575 8.91008 3.52575 8.83782 3.65028L7.28881 6.3198C6.97469 6.86114 6.43176 7.23056 5.8129 7.32403L3.24067 7.71254C3.08049 7.73673 3.0243 7.93897 3.14905 8.04232L5.02322 9.59505C5.60195 10.0745 5.87407 10.8308 5.73348 11.5691L5.2085 14.3261C5.17912 14.4804 5.34108 14.6002 5.48004 14.5271L8.03907 13.1796C8.64054 12.8629 9.35945 12.8629 9.96092 13.1796L12.5199 14.5271C12.6589 14.6002 12.8209 14.4804 12.7915 14.3261L12.2665 11.5691C12.1259 10.8308 12.398 10.0745 12.9768 9.59505L14.8509 8.04232C14.9757 7.93897 14.9195 7.73673 14.7593 7.71254L12.1871 7.32403C11.5682 7.23056 11.0253 6.86114 10.7112 6.3198L9.16217 3.65028Z" fill="#353535"/>
</svg>
