<svg width="13" height="13" viewBox="0 0 13 13" fill="none" xmlns="http://www.w3.org/2000/svg">
<path d="M11.8136 3.37317C11.845 3.32942 11.7987 3.27293 11.7484 3.29239C11.3916 3.43069 11.0187 3.524 10.6383 3.56999C11.0619 3.31696 11.3887 2.9318 11.5699 2.47579C11.5884 2.42933 11.5377 2.38785 11.4939 2.41202C11.1003 2.62941 10.6757 2.78595 10.2347 2.8761C10.2163 2.87987 10.1973 2.87359 10.1843 2.85991C9.85336 2.51072 9.41773 2.27821 8.94283 2.19787C8.45795 2.11584 7.95956 2.19706 7.52582 2.4288C7.09208 2.66054 6.74752 3.02969 6.54619 3.47836C6.35476 3.90495 6.3031 4.38049 6.39752 4.83718C6.40485 4.87262 6.37711 4.90607 6.34099 4.90383C5.48297 4.85054 4.64463 4.62232 3.87762 4.23291C3.11256 3.8445 2.43508 3.30415 1.88645 2.6452C1.8621 2.61596 1.81595 2.61974 1.79821 2.65341C1.62749 2.97736 1.53811 3.33843 1.53835 3.70541C1.53766 4.0707 1.6273 4.43049 1.7993 4.75275C1.9713 5.07502 2.22032 5.34975 2.52418 5.55249C2.20193 5.54372 1.88596 5.46405 1.59861 5.31961C1.56158 5.301 1.51716 5.3275 1.51908 5.3689C1.54149 5.85057 1.71832 6.33414 2.02439 6.70514C2.35011 7.09994 2.8022 7.37013 3.30418 7.46999C3.11095 7.5288 2.91032 7.5598 2.70835 7.56207C2.59842 7.56079 2.48871 7.55268 2.37985 7.53779C2.33948 7.53228 2.30652 7.57062 2.32065 7.60883C2.47038 8.01372 2.73489 8.36702 3.08268 8.62491C3.45451 8.90063 3.90304 9.05358 4.36585 9.06249C3.58433 9.67743 2.61945 10.013 1.62502 10.0158C1.52283 10.0162 1.4207 10.0128 1.3188 10.0059C1.26138 10.002 1.23497 10.0785 1.28447 10.1079C2.25338 10.6829 3.36083 10.9868 4.49043 10.9854C5.32443 10.9941 6.1518 10.8365 6.9242 10.5218C7.69661 10.2071 8.39857 9.74168 8.98908 9.15267C9.5796 8.56367 10.0468 7.86291 10.3635 7.09131C10.6801 6.31972 10.8399 5.49276 10.8333 4.65874V4.39883C10.8333 4.38173 10.8414 4.36565 10.8551 4.35534C11.2225 4.07793 11.5456 3.74674 11.8136 3.37317Z" fill="#5F4D3C"/>
</svg>
