<svg width="18" height="18" viewBox="0 0 18 18" fill="none" xmlns="http://www.w3.org/2000/svg">
<path d="M16.3573 4.67043C16.4008 4.60985 16.3366 4.53163 16.2671 4.55858C15.773 4.75008 15.2567 4.87928 14.73 4.94295C15.3165 4.59261 15.769 4.0593 16.0199 3.4279C16.0455 3.36358 15.9752 3.30614 15.9147 3.3396C15.3696 3.6406 14.7818 3.85735 14.1712 3.98218C14.1456 3.98741 14.1193 3.9787 14.1013 3.95977C13.6431 3.47626 13.0399 3.15434 12.3824 3.04309C11.711 2.92951 11.0209 3.04197 10.4204 3.36284C9.8198 3.68372 9.34272 4.19485 9.06395 4.81608C8.79889 5.40675 8.72737 6.06518 8.8581 6.69753C8.86825 6.74659 8.82984 6.79291 8.77984 6.78981C7.5918 6.71602 6.43102 6.40002 5.36901 5.86085C4.3097 5.32304 3.37166 4.57487 2.612 3.66247C2.57829 3.62198 2.51439 3.62722 2.48982 3.67383C2.25345 4.12238 2.12968 4.62233 2.13002 5.13045C2.12906 5.63624 2.25318 6.13441 2.49134 6.58062C2.72949 7.02683 3.07428 7.40723 3.49502 7.68795C3.04883 7.67581 2.61133 7.5655 2.21346 7.36551C2.16218 7.33973 2.10068 7.37643 2.10334 7.43376C2.13437 8.10068 2.37921 8.77023 2.80301 9.28392C3.254 9.83058 3.87996 10.2047 4.57502 10.343C4.30746 10.4244 4.02968 10.4673 3.75002 10.4705C3.59782 10.4687 3.44591 10.4574 3.29517 10.4368C3.23928 10.4292 3.19365 10.4823 3.21321 10.5352C3.42053 11.0958 3.78677 11.585 4.26833 11.9421C4.78317 12.3238 5.4042 12.5356 6.04502 12.548C4.96292 13.3994 3.62693 13.8641 2.25002 13.868C2.10854 13.8684 1.96712 13.8638 1.82603 13.8542C1.74653 13.8488 1.70996 13.9547 1.77849 13.9954C3.12007 14.7915 4.65346 15.2124 6.21752 15.2104C7.37229 15.2224 8.51787 15.0042 9.58736 14.5685C10.6568 14.1328 11.6288 13.4884 12.4464 12.6728C13.2641 11.8573 13.911 10.887 14.3494 9.81863C14.7879 8.75027 15.0091 7.60525 15 6.45045V6.09058C15 6.0669 15.0112 6.04463 15.0301 6.03036C15.5388 5.64626 15.9862 5.18768 16.3573 4.67043Z" fill="white"/>
</svg>
