<svg width="18" height="19" viewBox="0 0 18 19" fill="none" xmlns="http://www.w3.org/2000/svg">
<path fill-rule="evenodd" clip-rule="evenodd" d="M7.58194 17.3752V1.62515C7.58194 1.46343 7.71328 1.33209 7.875 1.33209H13.5C13.6617 1.33209 13.7931 1.46343 13.7931 1.62515V17.3752C13.7931 17.5369 13.6617 17.6682 13.5 17.6682H7.875C7.71328 17.6682 7.58194 17.5369 7.58194 17.3752ZM8.16806 2.45709H9C9.16172 2.45709 9.29306 2.58843 9.29306 2.75015C9.29306 2.91187 9.16172 3.04321 9 3.04321H8.16806V3.58209H10.125C10.2867 3.58209 10.4181 3.71343 10.4181 3.87515C10.4181 4.03687 10.2867 4.16821 10.125 4.16821H8.16806V4.70709H9C9.16172 4.70709 9.29306 4.83843 9.29306 5.00015C9.29306 5.16187 9.16172 5.29321 9 5.29321H8.16806V5.83209H10.125C10.2867 5.83209 10.4181 5.96343 10.4181 6.12515C10.4181 6.28687 10.2867 6.41821 10.125 6.41821H8.16806V6.95709H9C9.16172 6.95709 9.29306 7.08843 9.29306 7.25015C9.29306 7.41187 9.16172 7.54321 9 7.54321H8.16806V8.08209H10.125C10.2867 8.08209 10.4181 8.21343 10.4181 8.37515C10.4181 8.53687 10.2867 8.66821 10.125 8.66821H8.16806V9.20709H9C9.16172 9.20709 9.29306 9.33843 9.29306 9.50015C9.29306 9.66187 9.16172 9.79321 9 9.79321H8.16806V10.3321H10.125C10.2867 10.3321 10.4181 10.4634 10.4181 10.6251C10.4181 10.7869 10.2867 10.9182 10.125 10.9182H8.16806V11.4571H9C9.16172 11.4571 9.29306 11.5884 9.29306 11.7501C9.29306 11.9119 9.16172 12.0432 9 12.0432H8.16806V12.5821H10.125C10.2867 12.5821 10.4181 12.7134 10.4181 12.8751C10.4181 13.0369 10.2867 13.1682 10.125 13.1682H8.16806V13.7071H9C9.16172 13.7071 9.29306 13.8384 9.29306 14.0001C9.29306 14.1619 9.16172 14.2932 9 14.2932H8.16806V14.8321H10.125C10.2867 14.8321 10.4181 14.9634 10.4181 15.1252C10.4181 15.2869 10.2867 15.4182 10.125 15.4182H8.16806V15.9571H9C9.16172 15.9571 9.29306 16.0884 9.29306 16.2502C9.29306 16.4119 9.16172 16.5432 9 16.5432H8.16806V17.0821H13.2069V1.91821H8.16806V2.45709Z" fill="#AD9681"/>
<path fill-rule="evenodd" clip-rule="evenodd" d="M5.91808 16.6677L6.54273 16.0428C6.6572 15.9286 6.84283 15.9286 6.9573 16.0428C7.07148 16.1572 7.07148 16.3429 6.9573 16.4573L5.8323 17.5823C5.71783 17.6965 5.5322 17.6965 5.41773 17.5823L4.29273 16.4573C4.17855 16.3429 4.17855 16.1572 4.29273 16.0428C4.4072 15.9286 4.59283 15.9286 4.7073 16.0428L5.33195 16.6677V2.33239L4.7073 2.95733C4.59283 3.07152 4.4072 3.07152 4.29273 2.95733C4.17855 2.84286 4.17855 2.65723 4.29273 2.54277L5.41773 1.41777C5.5322 1.30358 5.71783 1.30358 5.8323 1.41777L6.9573 2.54277C7.07148 2.65723 7.07148 2.84286 6.9573 2.95733C6.84283 3.07152 6.6572 3.07152 6.54273 2.95733L5.91808 2.33239V16.6677Z" fill="#AD9681"/>
</svg>
