<svg width="18" height="11" viewBox="0 0 18 11" fill="none" xmlns="http://www.w3.org/2000/svg">
<path fill-rule="evenodd" clip-rule="evenodd" d="M1.12497 4.08203H16.875C17.0367 4.08203 17.168 4.21337 17.168 4.37509V10.0001C17.168 10.1618 17.0367 10.2932 16.875 10.2932H1.12497C0.963253 10.2932 0.831909 10.1618 0.831909 10.0001V4.37509C0.831909 4.21337 0.963253 4.08203 1.12497 4.08203ZM16.043 4.66816V5.50009C16.043 5.66181 15.9117 5.79316 15.75 5.79316C15.5883 5.79316 15.4569 5.66181 15.4569 5.50009V4.66816H14.918V6.62509C14.918 6.78681 14.7867 6.91816 14.625 6.91816C14.4633 6.91816 14.3319 6.78681 14.3319 6.62509V4.66816H13.793V5.50009C13.793 5.66181 13.6617 5.79316 13.5 5.79316C13.3383 5.79316 13.2069 5.66181 13.2069 5.50009V4.66816H12.668V6.62509C12.668 6.78681 12.5367 6.91816 12.375 6.91816C12.2133 6.91816 12.0819 6.78681 12.0819 6.62509V4.66816H11.543V5.50009C11.543 5.66181 11.4117 5.79316 11.25 5.79316C11.0883 5.79316 10.9569 5.66181 10.9569 5.50009V4.66816H10.418V6.62509C10.418 6.78681 10.2867 6.91816 10.125 6.91816C9.96325 6.91816 9.83191 6.78681 9.83191 6.62509V4.66816H9.29303V5.50009C9.29303 5.66181 9.16169 5.79316 8.99997 5.79316C8.83825 5.79316 8.70691 5.66181 8.70691 5.50009V4.66816H8.16804V6.62509C8.16804 6.78681 8.03669 6.91816 7.87497 6.91816C7.71325 6.91816 7.58191 6.78681 7.58191 6.62509V4.66816H7.04303V5.50009C7.04303 5.66181 6.91169 5.79316 6.74997 5.79316C6.58825 5.79316 6.45691 5.66181 6.45691 5.50009V4.66816H5.91803V6.62509C5.91803 6.78681 5.78669 6.91816 5.62497 6.91816C5.46325 6.91816 5.33191 6.78681 5.33191 6.62509V4.66816H4.79303V5.50009C4.79303 5.66181 4.66169 5.79316 4.49997 5.79316C4.33825 5.79316 4.20691 5.66181 4.20691 5.50009V4.66816H3.66803V6.62509C3.66803 6.78681 3.53669 6.91816 3.37497 6.91816C3.21325 6.91816 3.08191 6.78681 3.08191 6.62509V4.66816H2.54303V5.50009C2.54303 5.66181 2.41169 5.79316 2.24997 5.79316C2.08825 5.79316 1.95691 5.66181 1.95691 5.50009V4.66816H1.41803V9.70703H16.5819V4.66816H16.043Z" fill="#AD9681"/>
<path fill-rule="evenodd" clip-rule="evenodd" d="M1.83242 2.41814L2.45736 3.04279C2.57154 3.15726 2.57154 3.34289 2.45736 3.45736C2.34289 3.57154 2.15726 3.57154 2.04279 3.45736L0.917794 2.33236C0.803606 2.21789 0.803606 2.03226 0.917794 1.91779L2.04279 0.792794C2.15726 0.678606 2.34289 0.678606 2.45736 0.792794C2.57154 0.907263 2.57154 1.09289 2.45736 1.20736L1.83242 1.83201H16.1677L15.5428 1.20736C15.4286 1.09289 15.4286 0.907263 15.5428 0.792794C15.6573 0.678606 15.8429 0.678606 15.9574 0.792794L17.0824 1.91779C17.1965 2.03226 17.1965 2.21789 17.0824 2.33236L15.9574 3.45736C15.8429 3.57154 15.6573 3.57154 15.5428 3.45736C15.4286 3.34289 15.4286 3.15726 15.5428 3.04279L16.1677 2.41814H1.83242Z" fill="#AD9681"/>
</svg>
